<svg width="261" height="239" viewBox="0 0 261 239" fill="none" xmlns="http://www.w3.org/2000/svg">
<circle cx="94" cy="94" r="94" fill="#EBEAEA"/>
<circle cx="94" cy="94" r="80" fill="white"/>
<circle cx="64.8734" cy="75.1122" r="14.5634" fill="#EBEAEA"/>
<circle cx="123.127" cy="75.1122" r="14.5634" fill="#EBEAEA"/>
<path d="M95.3241 110.211C69.7323 110.211 54.2818 126.098 47.6621 136.69L52.9579 138.014L59.6 132.393C66.5372 126.524 74.8248 122.47 83.7172 120.598C91.3666 118.988 99.272 119.032 106.903 120.728L107.233 120.801C115.09 122.547 122.482 125.955 128.912 130.796L138.5 138.014L142.986 136.69C137.69 126.098 120.916 110.211 95.3241 110.211Z" fill="#EBEAEA"/>
<path d="M142.337 162.172L166.317 132.664L245.686 197.163C253.834 203.785 255.072 215.759 248.45 223.907C241.828 232.056 229.854 233.293 221.706 226.671L142.337 162.172Z" fill="#EBEAEA"/>
</svg>
