<svg width="281" height="50" viewBox="0 0 281 50" fill="none" xmlns="http://www.w3.org/2000/svg">
<g clip-path="url(#clip0_1_2)">
<path d="M0 0H15.2624L21.8181 14.2206L14.1357 29.7712L0 0Z" fill="#333333"/>
<path d="M61.6646 0L51.2165 22.9167L43.2267 6.2407H28.374L42.817 38.5695H58.694L77.0296 0H61.6646Z" fill="#333333"/>
<path d="M43.5336 6.24112H28.1687L8.60406 49.1076H23.1495L43.5336 6.24112Z" fill="#13AAF7"/>
<path d="M122.864 4.7061C125.835 7.7753 127.371 11.4583 127.371 15.8575C127.371 20.2567 125.835 23.9397 122.864 27.0089C119.893 30.0781 116.206 31.6127 112.006 31.6127C108.114 31.6127 104.836 30.385 102.07 27.9297C99.3045 25.4743 97.5629 22.4052 96.9485 18.7221H92.8515V30.9989H86.3977V0.716145H92.8515V12.5837H96.9485C97.5629 9.1053 99.3045 6.13839 102.07 3.68304C104.836 1.22768 108.216 0 112.006 0C116.206 0.102307 119.791 1.6369 122.864 4.7061ZM118.255 22.9167C119.996 21.0752 120.918 18.6198 120.918 15.8575C120.918 13.0952 119.996 10.6398 118.255 8.79833C116.513 6.95684 114.464 5.93378 112.006 5.93378C109.548 5.93378 107.499 6.85454 105.758 8.79833C104.017 10.6398 103.095 13.0952 103.095 15.8575C103.095 18.6198 104.017 21.0752 105.758 22.9167C107.499 24.7582 109.548 25.7812 112.006 25.7812C114.464 25.7812 116.513 24.8605 118.255 22.9167Z" fill="#13AAF7"/>
<path d="M152.467 30.9989H138.741V0.716156H151.749C154.515 0.716156 156.769 1.53461 158.51 3.06921C160.252 4.70611 161.173 6.54762 161.173 8.69607C161.173 9.51448 161.071 10.2307 160.866 10.9468C160.661 11.663 160.354 12.2768 160.047 12.7883C159.739 13.2999 159.33 13.7091 159.022 14.016C158.715 14.3229 158.408 14.6299 158.203 14.7321L157.793 14.9368C157.895 15.0391 158.101 15.0391 158.305 15.1414C158.51 15.2436 158.92 15.5506 159.535 15.9599C160.149 16.369 160.661 16.7783 161.071 17.2898C161.481 17.8014 161.89 18.4152 162.3 19.3359C162.71 20.1544 162.812 21.0752 162.812 22.0982C162.812 24.5536 161.89 26.5997 159.944 28.3389C157.895 30.0781 155.437 30.9989 152.467 30.9989ZM151.237 6.1384H145.296V12.5837H151.34C152.364 12.5837 153.286 12.2768 153.901 11.663C154.515 11.0491 154.823 10.333 154.823 9.30993C154.823 8.28683 154.515 7.57069 153.901 6.95685C153.183 6.44532 152.364 6.1384 151.237 6.1384ZM145.296 25.5766H152.159C153.389 25.5766 154.311 25.1674 155.13 24.4513C155.949 23.7351 156.257 22.8143 156.257 21.6889C156.257 20.5636 155.847 19.6429 155.13 18.9267C154.311 18.2105 153.389 17.8014 152.159 17.8014H145.296V25.5766Z" fill="#333333"/>
<path d="M201.225 30.9989H194.771V11.7652L179.919 30.9989H174.285V0.716156H180.738V19.9498L195.591 0.716156H201.225V30.9989Z" fill="#333333"/>
<path d="M239.637 0.716156V30.8966H233.184V6.54763H224.374V10.0261C224.374 14.3229 224.17 17.9036 223.658 20.7683C223.145 23.6328 222.531 25.8836 221.609 27.4182C220.687 28.9527 219.663 30.0781 218.536 30.692C217.409 31.3058 216.077 31.6127 214.439 31.6127C213.824 31.6127 213.209 31.5104 212.492 31.4081C211.878 31.3058 211.366 31.1012 211.058 30.9989L210.546 30.7943V24.6559C211.263 24.9628 211.98 25.0651 212.697 25.0651C213.824 25.0651 214.746 24.7582 215.463 24.0421C216.18 23.3259 216.692 21.8936 217.205 19.6429C217.717 17.3921 217.921 14.1183 217.921 10.0261V0.716156H239.637Z" fill="#333333"/>
<path d="M267.499 0.102081C269.138 0.102081 270.572 0.306694 272.006 0.71592C273.44 1.12514 274.669 1.63668 275.489 2.25052C276.411 2.86436 277.23 3.4782 277.947 3.98973C278.664 4.60357 279.177 5.1151 279.483 5.52433L279.995 6.13817L275.899 10.2304C275.796 10.1281 275.694 9.92347 275.591 9.71893C275.489 9.5143 275.079 9.20733 274.567 8.69582C274.055 8.1843 273.542 7.77506 272.928 7.36584C272.314 6.95661 271.494 6.6497 270.572 6.34278C269.548 6.03586 268.626 5.83124 267.602 5.83124C264.733 5.83124 262.377 6.752 260.533 8.69582C258.587 10.6397 257.665 12.9927 257.665 15.755C257.665 18.6195 258.587 20.9726 260.533 22.8142C262.48 24.7579 264.836 25.6787 267.602 25.6787C268.728 25.6787 269.752 25.5764 270.777 25.2695C271.801 24.9626 272.62 24.6557 273.235 24.1441C273.85 23.7349 274.464 23.3257 274.977 22.9164C275.489 22.5072 275.898 22.098 276.103 21.791L276.411 21.3818L280.303 25.4741C280.201 25.6787 279.995 25.8833 279.791 26.0879C279.586 26.3948 279.073 26.8041 278.255 27.5202C277.435 28.2363 276.615 28.8502 275.693 29.3617C274.772 29.8732 273.645 30.3848 272.108 30.794C270.674 31.2032 269.138 31.4079 267.499 31.4079C262.889 31.4079 258.997 29.8732 255.822 26.8041C252.646 23.7349 251.11 20.0519 251.11 15.6526C251.11 11.3558 252.646 7.57046 255.822 4.50126C258.997 1.63668 262.889 0.102081 267.499 0.102081Z" fill="#333333"/>
<path d="M89.2659 49.1073H86.2955V42.1505H89.1636C89.778 42.1505 90.1879 42.3551 90.5977 42.662C91.0076 43.0713 91.2121 43.4805 91.2121 43.992C91.2121 44.2989 91.1099 44.5035 91.0076 44.8104C90.9053 45.0151 90.8023 45.2197 90.7 45.322L90.4955 45.4243C90.4955 45.4243 90.5977 45.4243 90.5977 45.5266C90.5977 45.5266 90.7 45.6289 90.8023 45.7312C90.9053 45.8335 91.0076 45.9358 91.1099 46.0382C91.2121 46.1404 91.3144 46.3451 91.3144 46.5497C91.4174 46.7543 91.4174 46.9589 91.4174 47.1635C91.4174 47.6751 91.2121 48.1866 90.8023 48.5958C90.3932 48.9027 89.8811 49.1073 89.2659 49.1073ZM89.0614 43.0713H87.3197V45.0151H89.0614C89.3682 45.0151 89.5735 44.9128 89.778 44.7082C89.9834 44.5035 90.0856 44.2989 90.0856 43.992C90.0856 43.6851 89.9834 43.4805 89.778 43.2759C89.5735 43.1735 89.3682 43.0713 89.0614 43.0713ZM87.3197 48.1866H89.2659C89.5735 48.1866 89.8811 48.0843 90.0856 47.8797C90.2902 47.6751 90.3932 47.3682 90.3932 47.0612C90.3932 46.7543 90.2902 46.4473 90.0856 46.2428C89.8811 46.0382 89.5735 45.9358 89.2659 45.9358H87.3197V48.1866Z" fill="#333333"/>
<path d="M93.0553 49.1073L95.9235 42.1505H97.0507L99.9189 49.1073H98.7917L98.075 47.2658H95.0023L94.2848 49.1073H93.0553ZM96.5386 43.3782L95.4114 46.2428H97.6651L96.5386 43.3782Z" fill="#333333"/>
<path d="M110.571 42.1505V49.1073H102.172V42.1505H103.299V48.1866H105.86V42.1505H106.986V48.1866H109.547V42.1505H110.571Z" fill="#333333"/>
<path d="M119.483 49.1073H118.357V44.0943L114.464 49.1073H113.542V42.1505H114.669V47.1635L118.561 42.1505H119.483V49.1073Z" fill="#333333"/>
<path d="M128.498 49.1073H125.527V42.1505H128.395C129.01 42.1505 129.42 42.3551 129.83 42.662C130.239 43.0713 130.444 43.4805 130.444 43.992C130.444 44.2989 130.342 44.5035 130.239 44.8104C130.136 45.0151 130.034 45.2197 129.932 45.322L129.727 45.4243C129.727 45.4243 129.83 45.4243 129.83 45.5266C129.83 45.5266 129.932 45.6289 130.034 45.7312C130.136 45.8335 130.239 45.9358 130.342 46.0382C130.444 46.1404 130.546 46.3451 130.546 46.5497C130.648 46.7543 130.648 46.9589 130.648 47.1635C130.648 47.6751 130.444 48.1866 130.034 48.5958C129.624 48.9027 129.112 49.1073 128.498 49.1073ZM128.293 43.0713H126.552V45.0151H128.293C128.6 45.0151 128.805 44.9128 129.01 44.7082C129.214 44.5035 129.317 44.2989 129.317 43.992C129.317 43.6851 129.214 43.4805 129.01 43.2759C128.805 43.1735 128.6 43.0713 128.293 43.0713ZM126.552 48.1866H128.498C128.805 48.1866 129.112 48.0843 129.317 47.8797C129.522 47.6751 129.624 47.3682 129.624 47.0612C129.624 46.7543 129.522 46.4473 129.317 46.2428C129.112 46.0382 128.805 45.9358 128.498 45.9358H126.552V48.1866Z" fill="#333333"/>
<path d="M134.029 48.1868C133.312 47.4707 133.005 46.6522 133.005 45.6292C133.005 44.6061 133.312 43.7876 134.029 43.0715C134.746 42.3553 135.565 42.0484 136.692 42.0484C137.717 42.0484 138.639 42.3553 139.355 43.0715C140.072 43.7876 140.38 44.6061 140.38 45.6292C140.38 46.6522 140.072 47.4707 139.355 48.1868C138.639 48.9029 137.819 49.2098 136.692 49.2098C135.565 49.2098 134.746 48.9029 134.029 48.1868ZM134.746 43.7876C134.233 44.2992 134.029 44.913 134.029 45.6292C134.029 46.3453 134.233 46.9591 134.746 47.4707C135.258 47.9822 135.873 48.1868 136.589 48.1868C137.307 48.1868 137.921 47.9822 138.433 47.4707C138.945 46.9591 139.151 46.3453 139.151 45.6292C139.151 44.913 138.945 44.2992 138.433 43.7876C137.921 43.2761 137.307 43.0715 136.589 43.0715C135.873 43.0715 135.258 43.2761 134.746 43.7876Z" fill="#333333"/>
<path d="M146.116 45.4246C146.116 45.4246 146.218 45.4246 146.218 45.527C146.32 45.527 146.423 45.6293 146.526 45.7316C146.628 45.8339 146.833 45.9362 146.936 46.0385C147.038 46.1408 147.14 46.3454 147.242 46.55C147.345 46.7546 147.345 46.9593 147.345 47.2662C147.345 47.88 147.14 48.2893 146.628 48.6984C146.116 49.1077 145.502 49.3123 144.682 49.3123C144.374 49.3123 144.067 49.3123 143.76 49.21C143.452 49.1077 143.248 49.0054 143.043 48.903C142.838 48.8008 142.633 48.6984 142.53 48.5961C142.326 48.4939 142.223 48.3915 142.223 48.2893L142.121 48.1869L142.838 47.4708C142.838 47.4708 142.838 47.4708 142.94 47.5731C142.94 47.5731 143.043 47.6754 143.145 47.7777C143.248 47.88 143.452 47.9823 143.555 48.0846C143.658 48.1869 143.862 48.1869 144.067 48.2893C144.272 48.3915 144.477 48.3915 144.784 48.3915C145.296 48.3915 145.706 48.2893 145.911 48.0846C146.218 47.88 146.32 47.5731 146.32 47.2662C146.32 46.9593 146.218 46.6524 145.911 46.4477C145.604 46.2431 145.194 46.1408 144.784 46.1408H143.964V45.1177H144.784C145.194 45.1177 145.502 45.0154 145.706 44.8108C145.911 44.6062 146.014 44.4016 146.014 44.0946C146.014 43.7877 145.911 43.5831 145.706 43.4808C145.502 43.3785 145.194 43.1739 144.784 43.1739C144.477 43.1739 144.17 43.2762 143.964 43.3785C143.658 43.4808 143.452 43.5831 143.35 43.7877L143.145 43.9924L142.428 43.2762L142.53 43.1739C142.53 43.1739 142.633 43.0716 142.838 42.9693C143.043 42.867 143.145 42.7647 143.35 42.6624C143.555 42.5601 143.76 42.4577 144.067 42.4577C144.374 42.3555 144.58 42.3555 144.886 42.3555C145.604 42.3555 146.218 42.5601 146.628 42.867C147.038 43.1739 147.242 43.6855 147.242 44.197C147.242 44.4016 147.242 44.6062 147.14 44.8108C147.038 45.0154 147.038 45.1177 146.936 45.22C146.833 45.3224 146.73 45.4246 146.628 45.527C146.526 45.6293 146.423 45.6293 146.423 45.7316L146.116 45.4246Z" fill="#333333"/>
<path d="M153.594 45.5266L156.257 42.1505H157.179V49.1073H156.052V43.992L153.491 47.1635L150.93 43.992V49.1073H149.804V42.1505H150.726L153.594 45.5266Z" fill="#333333"/>
<path d="M160.969 48.1868C160.252 47.4707 159.945 46.6522 159.945 45.6292C159.945 44.6061 160.252 43.7876 160.969 43.0715C161.686 42.3553 162.505 42.0484 163.633 42.0484C164.657 42.0484 165.579 42.3553 166.295 43.0715C167.013 43.7876 167.32 44.6061 167.32 45.6292C167.32 46.6522 167.013 47.4707 166.295 48.1868C165.579 48.9029 164.759 49.2098 163.633 49.2098C162.505 49.2098 161.686 48.9029 160.969 48.1868ZM161.686 43.7876C161.173 44.2992 160.969 44.913 160.969 45.6292C160.969 46.3453 161.173 46.9591 161.686 47.4707C162.198 47.9822 162.813 48.1868 163.53 48.1868C164.247 48.1868 164.861 47.9822 165.373 47.4707C165.886 46.9591 166.091 46.3453 166.091 45.6292C166.091 44.913 165.886 44.2992 165.373 43.7876C164.861 43.2761 164.247 43.0715 163.53 43.0715C162.813 43.0715 162.198 43.2761 161.686 43.7876Z" fill="#333333"/>
<path d="M172.953 49.1073V46.5497L172.236 45.8335L169.983 49.1073H168.651L171.52 45.0151L168.856 42.1505H170.29L172.953 45.1174V42.1505H174.08V45.1174L176.846 42.1505H178.28L175.617 45.0151L178.485 49.1073H177.051L174.797 45.8335L174.08 46.5497V49.1073H172.953Z" fill="#333333"/>
<path d="M186.065 42.1505V49.1073H184.938V46.0382H181.455V49.1073H180.329V42.1505H181.455V45.1174H184.938V42.1505H186.065Z" fill="#333333"/>
<path d="M189.752 48.1868C189.036 47.4707 188.728 46.6522 188.728 45.6292C188.728 44.6061 189.036 43.7876 189.752 43.0715C190.47 42.3553 191.289 42.0484 192.416 42.0484C193.44 42.0484 194.362 42.3553 195.079 43.0715C195.796 43.7876 196.103 44.6061 196.103 45.6292C196.103 46.6522 195.796 47.4707 195.079 48.1868C194.362 48.9029 193.542 49.2098 192.416 49.2098C191.289 49.2098 190.47 48.9029 189.752 48.1868ZM190.572 43.7876C190.06 44.2992 189.855 44.913 189.855 45.6292C189.855 46.3453 190.06 46.9591 190.572 47.4707C191.084 47.9822 191.698 48.1868 192.416 48.1868C193.133 48.1868 193.747 47.9822 194.26 47.4707C194.772 46.9591 194.977 46.3453 194.977 45.6292C194.977 44.913 194.772 44.2992 194.26 43.7876C193.747 43.2761 193.133 43.0715 192.416 43.0715C191.698 43.0715 191.084 43.2761 190.572 43.7876Z" fill="#333333"/>
<path d="M201.942 42.0484C202.249 42.0484 202.658 42.0484 202.966 42.1507C203.273 42.253 203.58 42.3553 203.786 42.4576C203.99 42.5599 204.195 42.7645 204.298 42.8669C204.502 42.9692 204.605 43.0714 204.605 43.1738L204.708 43.2761L203.99 43.9923C203.99 43.9923 203.99 43.8899 203.888 43.8899C203.888 43.8899 203.786 43.7876 203.683 43.6853C203.58 43.583 203.376 43.4807 203.273 43.3784C203.068 43.2761 202.966 43.1738 202.658 43.1738C202.454 43.0714 202.146 43.0715 201.839 43.0715C201.122 43.0715 200.508 43.2761 199.995 43.7876C199.483 44.2992 199.278 44.913 199.278 45.6292C199.278 46.3453 199.483 46.9591 199.995 47.4707C200.508 47.9822 201.122 48.1868 201.839 48.1868C202.146 48.1868 202.352 48.1868 202.658 48.0845C202.864 47.9822 203.068 47.8798 203.273 47.7776C203.478 47.6753 203.58 47.5729 203.683 47.4707C203.786 47.3683 203.888 47.2661 203.99 47.1637L204.092 47.0614L204.81 47.7776C204.81 47.7776 204.708 47.8798 204.708 47.9822C204.605 48.0845 204.502 48.1868 204.4 48.2891C204.195 48.4937 203.99 48.5961 203.786 48.6983C203.58 48.8006 203.273 48.9029 202.966 49.0052C202.658 49.1076 202.249 49.1076 201.942 49.1076C200.917 49.1076 199.995 48.8007 199.278 48.0845C198.561 47.3683 198.254 46.5499 198.254 45.5268C198.254 44.5038 198.561 43.6853 199.278 42.9692C199.995 42.3553 200.917 42.0484 201.942 42.0484Z" fill="#333333"/>
<path d="M206.448 42.1505H211.775V43.1735H209.727V49.1073H208.6V43.1735H206.551V42.1505H206.448Z" fill="#333333"/>
<path d="M219.867 49.1073H218.741V44.0943L214.848 49.1073H213.927V42.1505H215.053V47.1635L218.945 42.1505H219.867V49.1073Z" fill="#333333"/>
<path d="M231.339 42.1505V49.1073H230.213V43.1735H227.652V44.2989C227.652 45.322 227.652 46.1404 227.55 46.8566C227.447 47.5727 227.345 48.0843 227.14 48.3912C226.935 48.6981 226.73 49.0051 226.525 49.1073C226.32 49.2097 226.013 49.312 225.706 49.312C225.604 49.312 225.501 49.312 225.296 49.312C225.194 49.312 225.092 49.2097 224.989 49.2097H224.886V48.1866C225.092 48.2888 225.296 48.2888 225.398 48.2888C225.604 48.2888 225.706 48.2888 225.911 48.1866C226.013 48.0843 226.218 47.8797 226.32 47.6751C226.423 47.3681 226.525 47.0612 226.628 46.4473C226.73 45.9358 226.73 45.2197 226.73 44.4013V42.3551H231.339V42.1505Z" fill="#333333"/>
<path d="M240.252 49.1073H239.124V44.0943L235.232 49.1073H234.311V42.1505H235.437V47.1635L239.33 42.1505H240.252V49.1073Z" fill="#333333"/>
<path d="M246.705 45.4241C246.705 45.4241 246.807 45.4241 246.807 45.5264C246.91 45.5264 247.012 45.6287 247.114 45.7311C247.217 45.8333 247.422 45.9356 247.524 46.0379C247.626 46.1402 247.729 46.3448 247.832 46.5495C247.934 46.7541 247.934 46.9587 247.934 47.2656C247.934 47.8795 247.729 48.2887 247.217 48.6979C246.705 49.1071 246.09 49.3117 245.27 49.3117C244.964 49.3117 244.656 49.3117 244.348 49.2095C244.042 49.1071 243.836 49.0048 243.632 48.9025C243.426 48.8002 243.222 48.6979 243.12 48.5956C242.914 48.4933 242.812 48.391 242.812 48.2887L242.71 48.1864L243.426 47.4702C243.426 47.4702 243.427 47.4702 243.53 47.5726C243.53 47.5726 243.632 47.6748 243.734 47.7771C243.836 47.8795 244.042 47.9817 244.144 48.0841C244.246 48.1864 244.452 48.1864 244.656 48.2887C244.861 48.391 245.066 48.391 245.373 48.391C245.885 48.391 246.295 48.2887 246.5 48.0841C246.807 47.8795 246.91 47.5726 246.91 47.2656C246.91 46.9587 246.807 46.6518 246.5 46.4472C246.192 46.2426 245.783 46.1402 245.373 46.1402H244.554V45.1172H245.373C245.783 45.1172 246.09 45.0148 246.295 44.8103C246.5 44.6057 246.602 44.401 246.602 44.0941C246.602 43.7872 246.5 43.5826 246.295 43.4803C246.09 43.3779 245.68 43.0711 245.27 43.0711C244.964 43.0711 244.656 43.1733 244.451 43.2757C244.144 43.3779 243.939 43.4803 243.836 43.6849L243.632 43.8895L242.914 43.1733L243.017 43.0711C243.017 43.0711 243.12 42.9687 243.324 42.8664C243.53 42.7642 243.632 42.6618 243.836 42.5595C244.042 42.4572 244.246 42.3549 244.554 42.3549C244.861 42.2526 245.066 42.2526 245.373 42.2526C246.09 42.2526 246.705 42.4572 247.114 42.7642C247.524 43.071 247.729 43.5826 247.729 44.0941C247.729 44.2987 247.729 44.5033 247.626 44.7079C247.524 44.9126 247.524 45.0148 247.422 45.1172C247.319 45.2195 247.217 45.3218 247.114 45.4241C247.012 45.5264 246.91 45.5264 246.91 45.6287L246.705 45.4241Z" fill="#333333"/>
<path d="M256.539 49.1073H255.411V44.0943L251.519 49.1073H250.598V42.1505H251.724V47.1635L255.617 42.1505H256.539V49.1073Z" fill="#333333"/>
<path d="M265.142 42.1505V49.1073H264.016V46.0382H260.533V49.1073H259.407V42.1505H260.533V45.1174H264.016V42.1505H265.142Z" fill="#333333"/>
<path d="M268.114 49.1073V42.1505H272.62V43.1735H269.24V49.1073H268.114Z" fill="#333333"/>
<path d="M273.337 49.1073L276.205 42.1505H277.332L280.2 49.1073H279.074L278.356 47.2658H275.283L274.566 49.1073H273.337ZM276.82 43.3782L275.693 46.2428H277.946L276.82 43.3782Z" fill="#333333"/>
</g>
<defs>
<clipPath id="clip0_1_2">
<rect width="280.303" height="50" fill="white"/>
</clipPath>
</defs>
</svg>
