<svg width="370" height="66" viewBox="0 0 370 66" fill="none" xmlns="http://www.w3.org/2000/svg">
<path d="M0 0H20.1464L28.7999 18.7712L18.6591 39.298L0 0Z" fill="#152843"/>
<path d="M81.3972 0L67.6057 30.25L57.0592 8.23772H37.4536L56.5184 50.9118H77.4761L101.679 0H81.3972Z" fill="#152843"/>
<path d="M57.4644 8.23779H37.1827L11.3574 64.8215H30.5574L57.4644 8.23779Z" fill="#13AAF7"/>
<path d="M162.181 6.21205C166.102 10.2634 168.13 15.125 168.13 20.9319C168.13 26.7388 166.102 31.6004 162.181 35.6518C158.259 39.7031 153.392 41.7288 147.848 41.7288C142.71 41.7288 138.383 40.1082 134.733 36.8672C131.082 33.6261 128.783 29.5748 127.972 24.7132H122.564V40.9185H114.045V0.945312H122.564V16.6105H127.972C128.783 12.019 131.082 8.10268 134.733 4.86161C138.383 1.62054 142.845 0 147.848 0C153.392 0.135045 158.124 2.16071 162.181 6.21205ZM156.096 30.25C158.395 27.8192 159.612 24.5781 159.612 20.9319C159.612 17.2857 158.395 14.0446 156.096 11.6138C153.797 9.18303 151.093 7.83259 147.848 7.83259C144.603 7.83259 141.899 9.04799 139.6 11.6138C137.302 14.0446 136.085 17.2857 136.085 20.9319C136.085 24.5781 137.302 27.8192 139.6 30.25C141.899 32.6808 144.603 34.0312 147.848 34.0312C151.093 34.0312 153.797 32.8158 156.096 30.25Z" fill="#13AAF7"/>
<path d="M201.256 40.9185H183.138V0.945312H200.309C203.96 0.945312 206.935 2.02567 209.233 4.05134C211.532 6.21205 212.749 8.64285 212.749 11.4788C212.749 12.5591 212.614 13.5045 212.343 14.4498C212.073 15.3951 211.667 16.2053 211.262 16.8806C210.856 17.5558 210.315 18.096 209.909 18.5011C209.504 18.9062 209.098 19.3114 208.828 19.4464L208.287 19.7165C208.422 19.8516 208.693 19.8516 208.963 19.9866C209.233 20.1216 209.774 20.5268 210.586 21.067C211.397 21.6071 212.073 22.1473 212.614 22.8225C213.155 23.4978 213.695 24.308 214.236 25.5234C214.777 26.6038 214.912 27.8192 214.912 29.1696C214.912 32.4107 213.695 35.1116 211.126 37.4073C208.422 39.7031 205.177 40.9185 201.256 40.9185ZM199.633 8.10268H191.791V16.6105H199.769C201.121 16.6105 202.338 16.2053 203.149 15.3951C203.96 14.5848 204.366 13.6395 204.366 12.2891C204.366 10.9386 203.96 9.9933 203.149 9.18303C202.202 8.50781 201.121 8.10268 199.633 8.10268ZM191.791 33.7611H200.85C202.473 33.7611 203.69 33.221 204.771 32.2757C205.853 31.3303 206.259 30.1149 206.259 28.6294C206.259 27.144 205.718 25.9286 204.771 24.9832C203.69 24.0379 202.473 23.4978 200.85 23.4978H191.791V33.7611Z" fill="#152843"/>
<path d="M265.617 40.9185H257.098V15.5301L237.493 40.9185H230.056V0.945312H238.574V26.3337L258.18 0.945312H265.617V40.9185Z" fill="#152843"/>
<path d="M316.321 0.945312V40.7835H307.803V8.64286H296.174V13.2344C296.174 18.9062 295.904 23.6328 295.228 27.4141C294.552 31.1953 293.741 34.1663 292.524 36.192C291.307 38.2176 289.955 39.7031 288.467 40.5134C286.98 41.3237 285.222 41.7288 283.059 41.7288C282.248 41.7288 281.436 41.5937 280.49 41.4587C279.679 41.3237 279.003 41.0536 278.597 40.9185L277.921 40.6484V32.5458C278.867 32.9509 279.814 33.0859 280.76 33.0859C282.248 33.0859 283.465 32.6808 284.411 31.7355C285.358 30.7902 286.034 28.8995 286.71 25.9286C287.386 22.9576 287.656 18.6362 287.656 13.2344V0.945312H316.321Z" fill="#152843"/>
<path d="M353.099 0.134766C355.262 0.134766 357.155 0.404855 359.048 0.945033C360.941 1.48521 362.563 2.16043 363.645 2.9707C364.862 3.78097 365.944 4.59124 366.89 5.26646C367.837 6.07673 368.513 6.75195 368.918 7.29213L369.594 8.1024L364.186 13.5042C364.051 13.3691 363.916 13.099 363.78 12.829C363.645 12.5589 363.104 12.1537 362.428 11.4785C361.752 10.8033 361.076 10.2631 360.265 9.72293C359.454 9.18275 358.372 8.77762 357.155 8.37249C355.803 7.96735 354.586 7.69726 353.234 7.69726C349.448 7.69726 346.338 8.91266 343.904 11.4785C341.335 14.0444 340.118 17.1504 340.118 20.7966C340.118 24.5778 341.335 27.6839 343.904 30.1147C346.473 32.6805 349.583 33.8959 353.234 33.8959C354.721 33.8959 356.073 33.7609 357.425 33.3557C358.777 32.9506 359.859 32.5455 360.67 31.8702C361.482 31.3301 362.293 30.7899 362.969 30.2497C363.645 29.7095 364.186 29.1694 364.456 28.7642L364.862 28.224L370 33.6258C369.865 33.8959 369.594 34.166 369.324 34.4361C369.053 34.8412 368.377 35.3814 367.296 36.3267C366.214 37.272 365.132 38.0823 363.915 38.7575C362.699 39.4327 361.211 40.108 359.183 40.6481C357.29 41.1883 355.262 41.4584 353.099 41.4584C347.014 41.4584 341.876 39.4327 337.685 35.3814C333.493 31.3301 331.465 26.4685 331.465 20.6615C331.465 14.9897 333.493 9.99302 337.685 5.94168C341.876 2.16043 347.014 0.134766 353.099 0.134766Z" fill="#152843"/>
<path d="M117.831 64.8212H113.91V55.6382H117.696C118.507 55.6382 119.048 55.9083 119.589 56.3134C120.13 56.8536 120.4 57.3938 120.4 58.069C120.4 58.4741 120.265 58.7442 120.13 59.1493C119.995 59.4194 119.859 59.6895 119.724 59.8246L119.454 59.9596C119.454 59.9596 119.589 59.9596 119.589 60.0947C119.589 60.0947 119.724 60.2297 119.859 60.3647C119.995 60.4998 120.13 60.6348 120.265 60.7699C120.4 60.9049 120.535 61.175 120.535 61.4451C120.671 61.7152 120.671 61.9853 120.671 62.2554C120.671 62.9306 120.4 63.6058 119.859 64.146C119.319 64.5511 118.643 64.8212 117.831 64.8212ZM117.561 56.8536H115.262V59.4194H117.561C117.966 59.4194 118.237 59.2844 118.507 59.0143C118.778 58.7442 118.913 58.4741 118.913 58.069C118.913 57.6639 118.778 57.3938 118.507 57.1237C118.237 56.9886 117.966 56.8536 117.561 56.8536ZM115.262 63.6058H117.831C118.237 63.6058 118.643 63.4708 118.913 63.2007C119.183 62.9306 119.319 62.5255 119.319 62.1203C119.319 61.7152 119.183 61.3101 118.913 61.04C118.643 60.7699 118.237 60.6348 117.831 60.6348H115.262V63.6058Z" fill="#152843"/>
<path d="M122.833 64.8212L126.619 55.6382H128.107L131.893 64.8212H130.405L129.459 62.3904H125.403L124.456 64.8212H122.833ZM127.431 57.2587L125.943 61.04H128.918L127.431 57.2587Z" fill="#152843"/>
<path d="M145.954 55.6382V64.8212H134.867V55.6382H136.355V63.6058H139.735V55.6382H141.222V63.6058H144.602V55.6382H145.954Z" fill="#152843"/>
<path d="M157.718 64.8212H156.231V58.204L151.093 64.8212H149.876V55.6382H151.363V62.2554L156.501 55.6382H157.718V64.8212Z" fill="#152843"/>
<path d="M169.617 64.8212H165.696V55.6382H169.482C170.293 55.6382 170.834 55.9083 171.375 56.3134C171.916 56.8536 172.186 57.3938 172.186 58.069C172.186 58.4741 172.051 58.7442 171.916 59.1493C171.78 59.4194 171.645 59.6895 171.51 59.8246L171.239 59.9596C171.239 59.9596 171.375 59.9596 171.375 60.0947C171.375 60.0947 171.51 60.2297 171.645 60.3647C171.78 60.4998 171.916 60.6348 172.051 60.7699C172.186 60.9049 172.321 61.175 172.321 61.4451C172.456 61.7152 172.456 61.9853 172.456 62.2554C172.456 62.9306 172.186 63.6058 171.645 64.146C171.104 64.5511 170.428 64.8212 169.617 64.8212ZM169.347 56.8536H167.048V59.4194H169.347C169.752 59.4194 170.023 59.2844 170.293 59.0143C170.563 58.7442 170.699 58.4741 170.699 58.069C170.699 57.6639 170.563 57.3938 170.293 57.1237C170.023 56.9886 169.752 56.8536 169.347 56.8536ZM167.048 63.6058H169.617C170.023 63.6058 170.428 63.4708 170.699 63.2007C170.969 62.9306 171.104 62.5255 171.104 62.1203C171.104 61.7152 170.969 61.3101 170.699 61.04C170.428 60.7699 170.023 60.6348 169.617 60.6348H167.048V63.6058Z" fill="#152843"/>
<path d="M176.918 63.6061C175.972 62.6608 175.566 61.5804 175.566 60.23C175.566 58.8795 175.972 57.7992 176.918 56.8539C177.865 55.9086 178.946 55.5034 180.434 55.5034C181.786 55.5034 183.003 55.9086 183.949 56.8539C184.895 57.7992 185.301 58.8795 185.301 60.23C185.301 61.5804 184.895 62.6608 183.949 63.6061C183.003 64.5514 181.921 64.9565 180.434 64.9565C178.946 64.9565 177.865 64.5514 176.918 63.6061ZM177.865 57.7992C177.188 58.4744 176.918 59.2847 176.918 60.23C176.918 61.1753 177.188 61.9856 177.865 62.6608C178.541 63.336 179.352 63.6061 180.298 63.6061C181.245 63.6061 182.056 63.336 182.732 62.6608C183.408 61.9856 183.679 61.1753 183.679 60.23C183.679 59.2847 183.408 58.4744 182.732 57.7992C182.056 57.124 181.245 56.8539 180.298 56.8539C179.352 56.8539 178.541 57.124 177.865 57.7992Z" fill="#152843"/>
<path d="M192.873 59.96C192.873 59.96 193.008 59.96 193.008 60.0951C193.143 60.0951 193.278 60.2301 193.414 60.3652C193.549 60.5002 193.819 60.6353 193.955 60.7703C194.09 60.9053 194.225 61.1754 194.36 61.4455C194.495 61.7156 194.495 61.9857 194.495 62.3908C194.495 63.2011 194.225 63.7413 193.549 64.2815C192.873 64.8216 192.062 65.0917 190.98 65.0917C190.574 65.0917 190.169 65.0917 189.763 64.9567C189.357 64.8216 189.087 64.6866 188.817 64.5515C188.546 64.4165 188.276 64.2815 188.14 64.1464C187.87 64.0114 187.735 63.8763 187.735 63.7413L187.6 63.6062L188.546 62.6609C188.546 62.6609 188.546 62.6609 188.681 62.796C188.681 62.796 188.817 62.931 188.952 63.0661C189.087 63.2011 189.357 63.3361 189.493 63.4712C189.628 63.6062 189.898 63.6062 190.169 63.7413C190.439 63.8763 190.709 63.8763 191.115 63.8763C191.791 63.8763 192.332 63.7413 192.602 63.4712C193.008 63.2011 193.143 62.796 193.143 62.3908C193.143 61.9857 193.008 61.5806 192.602 61.3105C192.197 61.0404 191.656 60.9053 191.115 60.9053H190.033V59.5549H191.115C191.656 59.5549 192.062 59.4199 192.332 59.1498C192.602 58.8797 192.738 58.6096 192.738 58.2045C192.738 57.7993 192.602 57.5292 192.332 57.3942C192.062 57.2591 191.656 56.989 191.115 56.989C190.709 56.989 190.304 57.1241 190.033 57.2591C189.628 57.3942 189.357 57.5292 189.222 57.7993L188.952 58.0694L188.005 57.1241L188.14 56.989C188.14 56.989 188.276 56.854 188.546 56.719C188.817 56.5839 188.952 56.4489 189.222 56.3138C189.493 56.1788 189.763 56.0437 190.169 56.0437C190.574 55.9087 190.845 55.9087 191.25 55.9087C192.197 55.9087 193.008 56.1788 193.549 56.5839C194.09 56.989 194.36 57.6643 194.36 58.3395C194.36 58.6096 194.36 58.8797 194.225 59.1498C194.09 59.4199 194.09 59.5549 193.955 59.6899C193.819 59.825 193.684 59.96 193.549 60.0951C193.414 60.2301 193.278 60.2301 193.278 60.3652L192.873 59.96Z" fill="#152843"/>
<path d="M202.744 60.0947L206.259 55.6382H207.476V64.8212H205.989V58.069L202.608 62.2554L199.228 58.069V64.8212H197.741V55.6382H198.958L202.744 60.0947Z" fill="#152843"/>
<path d="M212.479 63.6061C211.533 62.6608 211.127 61.5804 211.127 60.23C211.127 58.8795 211.533 57.7992 212.479 56.8539C213.426 55.9086 214.507 55.5034 215.995 55.5034C217.347 55.5034 218.564 55.9086 219.51 56.8539C220.457 57.7992 220.862 58.8795 220.862 60.23C220.862 61.5804 220.457 62.6608 219.51 63.6061C218.564 64.5514 217.482 64.9565 215.995 64.9565C214.507 64.9565 213.426 64.5514 212.479 63.6061ZM213.426 57.7992C212.749 58.4744 212.479 59.2847 212.479 60.23C212.479 61.1753 212.749 61.9856 213.426 62.6608C214.102 63.336 214.913 63.6061 215.859 63.6061C216.806 63.6061 217.617 63.336 218.293 62.6608C218.969 61.9856 219.24 61.1753 219.24 60.23C219.24 59.2847 218.969 58.4744 218.293 57.7992C217.617 57.124 216.806 56.8539 215.859 56.8539C214.913 56.8539 214.102 57.124 213.426 57.7992Z" fill="#152843"/>
<path d="M228.298 64.8212V61.4451L227.352 60.4998L224.377 64.8212H222.62L226.406 59.4194L222.89 55.6382H224.783L228.298 59.5545V55.6382H229.786V59.5545L233.437 55.6382H235.329L231.814 59.4194L235.6 64.8212H233.707L230.732 60.4998L229.786 61.4451V64.8212H228.298Z" fill="#152843"/>
<path d="M245.606 55.6382V64.8212H244.118V60.7699H239.521V64.8212H238.034V55.6382H239.521V59.5545H244.118V55.6382H245.606Z" fill="#152843"/>
<path d="M250.473 63.6061C249.527 62.6608 249.121 61.5804 249.121 60.23C249.121 58.8795 249.527 57.7992 250.473 56.8539C251.42 55.9086 252.501 55.5034 253.989 55.5034C255.341 55.5034 256.558 55.9086 257.504 56.8539C258.451 57.7992 258.856 58.8795 258.856 60.23C258.856 61.5804 258.451 62.6608 257.504 63.6061C256.558 64.5514 255.476 64.9565 253.989 64.9565C252.501 64.9565 251.42 64.5514 250.473 63.6061ZM251.555 57.7992C250.879 58.4744 250.608 59.2847 250.608 60.23C250.608 61.1753 250.879 61.9856 251.555 62.6608C252.231 63.336 253.042 63.6061 253.989 63.6061C254.935 63.6061 255.746 63.336 256.423 62.6608C257.099 61.9856 257.369 61.1753 257.369 60.23C257.369 59.2847 257.099 58.4744 256.423 57.7992C255.746 57.124 254.935 56.8539 253.989 56.8539C253.042 56.8539 252.231 57.124 251.555 57.7992Z" fill="#152843"/>
<path d="M266.563 55.5034C266.969 55.5034 267.509 55.5034 267.915 55.6385C268.321 55.7735 268.726 55.9086 268.997 56.0436C269.267 56.1786 269.538 56.4487 269.673 56.5838C269.943 56.7188 270.078 56.8539 270.078 56.9889L270.214 57.124L269.267 58.0693C269.267 58.0693 269.267 57.9342 269.132 57.9342C269.132 57.9342 268.997 57.7992 268.861 57.6641C268.726 57.5291 268.456 57.394 268.321 57.259C268.05 57.124 267.915 56.9889 267.509 56.9889C267.239 56.8539 266.833 56.8539 266.428 56.8539C265.481 56.8539 264.67 57.124 263.994 57.7992C263.318 58.4744 263.047 59.2847 263.047 60.23C263.047 61.1753 263.318 61.9856 263.994 62.6608C264.67 63.336 265.481 63.6061 266.428 63.6061C266.833 63.6061 267.104 63.6061 267.509 63.471C267.78 63.336 268.05 63.201 268.321 63.0659C268.591 62.9309 268.726 62.7958 268.861 62.6608C268.997 62.5257 269.132 62.3907 269.267 62.2556L269.402 62.1206L270.349 63.0659C270.349 63.0659 270.214 63.201 270.214 63.336C270.078 63.471 269.943 63.6061 269.808 63.7411C269.538 64.0112 269.267 64.1463 268.997 64.2813C268.726 64.4164 268.321 64.5514 267.915 64.6864C267.509 64.8215 266.969 64.8215 266.563 64.8215C265.211 64.8215 263.994 64.4164 263.047 63.471C262.101 62.5257 261.695 61.4454 261.695 60.0949C261.695 58.7445 262.101 57.6641 263.047 56.7188C263.994 55.9086 265.211 55.5034 266.563 55.5034Z" fill="#152843"/>
<path d="M272.512 55.6382H279.543V56.9886H276.839V64.8212H275.352V56.9886H272.647V55.6382H272.512Z" fill="#152843"/>
<path d="M290.225 64.8212H288.738V58.204L283.6 64.8212H282.383V55.6382H283.87V62.2554L289.008 55.6382H290.225V64.8212Z" fill="#152843"/>
<path d="M305.368 55.6382V64.8212H303.881V56.9886H300.501V58.4741C300.501 59.8246 300.501 60.9049 300.366 61.8502C300.23 62.7955 300.095 63.4708 299.825 63.8759C299.554 64.281 299.284 64.6862 299.013 64.8212C298.743 64.9563 298.337 65.0913 297.932 65.0913C297.797 65.0913 297.661 65.0913 297.391 65.0913C297.256 65.0913 297.121 64.9563 296.985 64.9563H296.85V63.6058C297.121 63.7409 297.391 63.7409 297.526 63.7409C297.797 63.7409 297.932 63.7409 298.202 63.6058C298.337 63.4708 298.608 63.2007 298.743 62.9306C298.878 62.5255 299.013 62.1203 299.149 61.3101C299.284 60.6348 299.284 59.6895 299.284 58.6092V55.9083H305.368V55.6382Z" fill="#152843"/>
<path d="M317.132 64.8212H315.644V58.204L310.506 64.8212H309.29V55.6382H310.777V62.2554L315.915 55.6382H317.132V64.8212Z" fill="#152843"/>
<path d="M325.65 59.9598C325.65 59.9598 325.785 59.9598 325.785 60.0949C325.921 60.0949 326.056 60.2299 326.191 60.365C326.326 60.5 326.597 60.635 326.732 60.7701C326.867 60.9051 327.002 61.1752 327.138 61.4453C327.273 61.7154 327.273 61.9855 327.273 62.3906C327.273 63.2009 327.002 63.7411 326.326 64.2812C325.65 64.8214 324.839 65.0915 323.757 65.0915C323.352 65.0915 322.946 65.0915 322.54 64.9565C322.135 64.8214 321.864 64.6864 321.594 64.5513C321.323 64.4163 321.053 64.2812 320.918 64.1462C320.647 64.0112 320.512 63.8761 320.512 63.7411L320.377 63.606L321.323 62.6607C321.323 62.6607 321.323 62.6607 321.459 62.7958C321.459 62.7958 321.594 62.9308 321.729 63.0658C321.864 63.2009 322.135 63.3359 322.27 63.471C322.405 63.606 322.676 63.606 322.946 63.7411C323.216 63.8761 323.487 63.8761 323.892 63.8761C324.568 63.8761 325.109 63.7411 325.38 63.471C325.785 63.2009 325.921 62.7958 325.921 62.3906C325.921 61.9855 325.785 61.5804 325.38 61.3103C324.974 61.0402 324.433 60.9051 323.892 60.9051H322.811V59.5547H323.892C324.433 59.5547 324.839 59.4196 325.109 59.1496C325.38 58.8795 325.515 58.6094 325.515 58.2042C325.515 57.7991 325.38 57.529 325.109 57.394C324.839 57.2589 324.298 56.8538 323.757 56.8538C323.352 56.8538 322.946 56.9888 322.676 57.1239C322.27 57.2589 321.999 57.394 321.864 57.6641L321.594 57.9341L320.647 56.9888L320.783 56.8538C320.783 56.8538 320.918 56.7187 321.188 56.5837C321.459 56.4487 321.594 56.3136 321.864 56.1786C322.135 56.0435 322.405 55.9085 322.811 55.9085C323.216 55.7734 323.487 55.7734 323.892 55.7734C324.839 55.7734 325.65 56.0435 326.191 56.4487C326.732 56.8538 327.002 57.529 327.002 58.2042C327.002 58.4743 327.002 58.7444 326.867 59.0145C326.732 59.2846 326.732 59.4196 326.597 59.5547C326.461 59.6897 326.326 59.8248 326.191 59.9598C326.056 60.0949 325.921 60.0949 325.921 60.2299L325.65 59.9598Z" fill="#152843"/>
<path d="M338.631 64.8212H337.143V58.204L332.005 64.8212H330.789V55.6382H332.276V62.2554L337.414 55.6382H338.631V64.8212Z" fill="#152843"/>
<path d="M349.988 55.6382V64.8212H348.501V60.7699H343.904V64.8212H342.417V55.6382H343.904V59.5545H348.501V55.6382H349.988Z" fill="#152843"/>
<path d="M353.91 64.8212V55.6382H359.859V56.9886H355.397V64.8212H353.91Z" fill="#152843"/>
<path d="M360.805 64.8212L364.591 55.6382H366.078L369.864 64.8212H368.377L367.43 62.3904H363.374L362.427 64.8212H360.805ZM365.402 57.2587L363.915 61.04H366.889L365.402 57.2587Z" fill="#152843"/>
</svg>
