<svg width="370" height="66" viewBox="0 0 370 66" fill="none" xmlns="http://www.w3.org/2000/svg">
<path d="M0 0H20.1464L28.7999 18.7712L18.6591 39.298L0 0Z" fill="#333333"/>
<path d="M81.3972 0L67.6057 30.25L57.0592 8.23772H37.4536L56.5184 50.9118H77.4761L101.679 0H81.3972Z" fill="#333333"/>
<path d="M57.4644 8.23828H37.1827L11.3574 64.822H30.5574L57.4644 8.23828Z" fill="#13AAF7"/>
<path d="M162.181 6.21205C166.102 10.2634 168.13 15.125 168.13 20.9319C168.13 26.7388 166.102 31.6004 162.181 35.6518C158.259 39.7031 153.392 41.7288 147.848 41.7288C142.71 41.7288 138.383 40.1082 134.733 36.8672C131.082 33.6261 128.783 29.5748 127.972 24.7132H122.564V40.9185H114.045V0.945312H122.564V16.6105H127.972C128.783 12.019 131.082 8.10268 134.733 4.86161C138.383 1.62054 142.845 0 147.848 0C153.392 0.135045 158.124 2.16071 162.181 6.21205ZM156.096 30.25C158.395 27.8192 159.612 24.5781 159.612 20.9319C159.612 17.2857 158.395 14.0446 156.096 11.6138C153.797 9.18303 151.093 7.83259 147.848 7.83259C144.603 7.83259 141.899 9.04799 139.6 11.6138C137.302 14.0446 136.085 17.2857 136.085 20.9319C136.085 24.5781 137.302 27.8192 139.6 30.25C141.899 32.6808 144.603 34.0312 147.848 34.0312C151.093 34.0312 153.797 32.8158 156.096 30.25Z" fill="#13AAF7"/>
<path d="M201.256 40.9185H183.138V0.945312H200.309C203.96 0.945312 206.935 2.02567 209.233 4.05134C211.532 6.21205 212.749 8.64285 212.749 11.4788C212.749 12.5591 212.614 13.5045 212.343 14.4498C212.073 15.3951 211.667 16.2053 211.262 16.8806C210.856 17.5558 210.315 18.096 209.909 18.5011C209.504 18.9062 209.098 19.3114 208.828 19.4464L208.287 19.7165C208.422 19.8516 208.693 19.8516 208.963 19.9866C209.233 20.1216 209.774 20.5268 210.586 21.067C211.397 21.6071 212.073 22.1473 212.614 22.8225C213.155 23.4978 213.695 24.308 214.236 25.5234C214.777 26.6038 214.912 27.8192 214.912 29.1696C214.912 32.4107 213.695 35.1116 211.126 37.4073C208.422 39.7031 205.177 40.9185 201.256 40.9185ZM199.633 8.10268H191.791V16.6105H199.769C201.121 16.6105 202.338 16.2053 203.149 15.3951C203.96 14.5848 204.366 13.6395 204.366 12.2891C204.366 10.9386 203.96 9.9933 203.149 9.18303C202.202 8.50781 201.121 8.10268 199.633 8.10268ZM191.791 33.7611H200.85C202.473 33.7611 203.69 33.221 204.771 32.2757C205.853 31.3303 206.259 30.1149 206.259 28.6294C206.259 27.144 205.718 25.9286 204.771 24.9832C203.69 24.0379 202.473 23.4978 200.85 23.4978H191.791V33.7611Z" fill="#333333"/>
<path d="M265.617 40.9185H257.098V15.5301L237.493 40.9185H230.056V0.945312H238.574V26.3337L258.18 0.945312H265.617V40.9185Z" fill="#333333"/>
<path d="M316.321 0.945312V40.7835H307.803V8.64286H296.174V13.2344C296.174 18.9062 295.904 23.6328 295.228 27.4141C294.552 31.1953 293.741 34.1663 292.524 36.192C291.307 38.2176 289.955 39.7031 288.467 40.5134C286.98 41.3237 285.222 41.7288 283.059 41.7288C282.248 41.7288 281.436 41.5937 280.49 41.4587C279.679 41.3237 279.003 41.0536 278.597 40.9185L277.921 40.6484V32.5458C278.867 32.9509 279.814 33.0859 280.76 33.0859C282.248 33.0859 283.465 32.6808 284.411 31.7355C285.358 30.7902 286.034 28.8995 286.71 25.9286C287.386 22.9576 287.656 18.6362 287.656 13.2344V0.945312H316.321Z" fill="#333333"/>
<path d="M353.099 0.134766C355.262 0.134766 357.155 0.404855 359.048 0.945033C360.941 1.48521 362.563 2.16043 363.645 2.9707C364.862 3.78097 365.944 4.59124 366.89 5.26646C367.837 6.07673 368.513 6.75195 368.918 7.29213L369.594 8.1024L364.186 13.5042C364.051 13.3691 363.916 13.099 363.78 12.829C363.645 12.5589 363.104 12.1537 362.428 11.4785C361.752 10.8033 361.076 10.2631 360.265 9.72293C359.454 9.18275 358.372 8.77762 357.155 8.37249C355.803 7.96735 354.586 7.69726 353.234 7.69726C349.448 7.69726 346.338 8.91266 343.904 11.4785C341.335 14.0444 340.118 17.1504 340.118 20.7966C340.118 24.5778 341.335 27.6839 343.904 30.1147C346.473 32.6805 349.583 33.8959 353.234 33.8959C354.721 33.8959 356.073 33.7609 357.425 33.3557C358.777 32.9506 359.859 32.5455 360.67 31.8702C361.482 31.3301 362.293 30.7899 362.969 30.2497C363.645 29.7095 364.186 29.1694 364.456 28.7642L364.862 28.224L370 33.6258C369.865 33.8959 369.594 34.166 369.324 34.4361C369.053 34.8412 368.377 35.3814 367.296 36.3267C366.214 37.272 365.132 38.0823 363.915 38.7575C362.699 39.4327 361.211 40.108 359.183 40.6481C357.29 41.1883 355.262 41.4584 353.099 41.4584C347.014 41.4584 341.876 39.4327 337.685 35.3814C333.493 31.3301 331.465 26.4685 331.465 20.6615C331.465 14.9897 333.493 9.99302 337.685 5.94168C341.876 2.16043 347.014 0.134766 353.099 0.134766Z" fill="#333333"/>
<path d="M117.831 64.8217H113.91V55.6387H117.696C118.507 55.6387 119.048 55.9088 119.589 56.3139C120.13 56.8541 120.4 57.3943 120.4 58.0695C120.4 58.4746 120.265 58.7447 120.13 59.1498C119.995 59.4199 119.859 59.69 119.724 59.8251L119.454 59.9601C119.454 59.9601 119.589 59.9601 119.589 60.0951C119.589 60.0951 119.724 60.2302 119.859 60.3652C119.995 60.5003 120.13 60.6353 120.265 60.7704C120.4 60.9054 120.535 61.1755 120.535 61.4456C120.671 61.7157 120.671 61.9858 120.671 62.2559C120.671 62.9311 120.4 63.6063 119.859 64.1465C119.319 64.5516 118.643 64.8217 117.831 64.8217ZM117.561 56.8541H115.262V59.4199H117.561C117.966 59.4199 118.237 59.2849 118.507 59.0148C118.778 58.7447 118.913 58.4746 118.913 58.0695C118.913 57.6643 118.778 57.3943 118.507 57.1242C118.237 56.9891 117.966 56.8541 117.561 56.8541ZM115.262 63.6063H117.831C118.237 63.6063 118.643 63.4713 118.913 63.2012C119.183 62.9311 119.319 62.526 119.319 62.1208C119.319 61.7157 119.183 61.3105 118.913 61.0405C118.643 60.7704 118.237 60.6353 117.831 60.6353H115.262V63.6063Z" fill="#333333"/>
<path d="M122.833 64.8217L126.619 55.6387H128.107L131.893 64.8217H130.405L129.459 62.3909H125.403L124.456 64.8217H122.833ZM127.431 57.2592L125.943 61.0405H128.918L127.431 57.2592Z" fill="#333333"/>
<path d="M145.954 55.6387V64.8217H134.867V55.6387H136.355V63.6063H139.735V55.6387H141.222V63.6063H144.602V55.6387H145.954Z" fill="#333333"/>
<path d="M157.718 64.8217H156.231V58.2045L151.093 64.8217H149.876V55.6387H151.363V62.2559L156.501 55.6387H157.718V64.8217Z" fill="#333333"/>
<path d="M169.617 64.8217H165.696V55.6387H169.482C170.293 55.6387 170.834 55.9088 171.375 56.3139C171.916 56.8541 172.186 57.3943 172.186 58.0695C172.186 58.4746 172.051 58.7447 171.916 59.1498C171.78 59.4199 171.645 59.69 171.51 59.8251L171.239 59.9601C171.239 59.9601 171.375 59.9601 171.375 60.0951C171.375 60.0951 171.51 60.2302 171.645 60.3652C171.78 60.5003 171.916 60.6353 172.051 60.7704C172.186 60.9054 172.321 61.1755 172.321 61.4456C172.456 61.7157 172.456 61.9858 172.456 62.2559C172.456 62.9311 172.186 63.6063 171.645 64.1465C171.104 64.5516 170.428 64.8217 169.617 64.8217ZM169.347 56.8541H167.048V59.4199H169.347C169.752 59.4199 170.023 59.2849 170.293 59.0148C170.563 58.7447 170.699 58.4746 170.699 58.0695C170.699 57.6643 170.563 57.3943 170.293 57.1242C170.023 56.9891 169.752 56.8541 169.347 56.8541ZM167.048 63.6063H169.617C170.023 63.6063 170.428 63.4713 170.699 63.2012C170.969 62.9311 171.104 62.526 171.104 62.1208C171.104 61.7157 170.969 61.3105 170.699 61.0405C170.428 60.7704 170.023 60.6353 169.617 60.6353H167.048V63.6063Z" fill="#333333"/>
<path d="M176.918 63.6066C175.972 62.6613 175.566 61.5809 175.566 60.2305C175.566 58.88 175.972 57.7997 176.918 56.8544C177.865 55.909 178.946 55.5039 180.434 55.5039C181.786 55.5039 183.003 55.909 183.949 56.8544C184.895 57.7997 185.301 58.88 185.301 60.2305C185.301 61.5809 184.895 62.6613 183.949 63.6066C183.003 64.5519 181.921 64.957 180.434 64.957C178.946 64.957 177.865 64.5519 176.918 63.6066ZM177.865 57.7997C177.188 58.4749 176.918 59.2852 176.918 60.2305C176.918 61.1758 177.188 61.986 177.865 62.6613C178.541 63.3365 179.352 63.6066 180.298 63.6066C181.245 63.6066 182.056 63.3365 182.732 62.6613C183.408 61.986 183.679 61.1758 183.679 60.2305C183.679 59.2852 183.408 58.4749 182.732 57.7997C182.056 57.1244 181.245 56.8544 180.298 56.8544C179.352 56.8544 178.541 57.1244 177.865 57.7997Z" fill="#333333"/>
<path d="M192.873 59.9605C192.873 59.9605 193.008 59.9605 193.008 60.0956C193.143 60.0956 193.278 60.2306 193.414 60.3657C193.549 60.5007 193.819 60.6357 193.955 60.7708C194.09 60.9058 194.225 61.1759 194.36 61.446C194.495 61.7161 194.495 61.9862 194.495 62.3913C194.495 63.2016 194.225 63.7418 193.549 64.2819C192.873 64.8221 192.062 65.0922 190.98 65.0922C190.574 65.0922 190.169 65.0922 189.763 64.9572C189.357 64.8221 189.087 64.6871 188.817 64.552C188.546 64.417 188.276 64.2819 188.14 64.1469C187.87 64.0119 187.735 63.8768 187.735 63.7418L187.6 63.6067L188.546 62.6614C188.546 62.6614 188.546 62.6614 188.681 62.7965C188.681 62.7965 188.817 62.9315 188.952 63.0665C189.087 63.2016 189.357 63.3366 189.493 63.4717C189.628 63.6067 189.898 63.6067 190.169 63.7418C190.439 63.8768 190.709 63.8768 191.115 63.8768C191.791 63.8768 192.332 63.7418 192.602 63.4717C193.008 63.2016 193.143 62.7965 193.143 62.3913C193.143 61.9862 193.008 61.5811 192.602 61.311C192.197 61.0409 191.656 60.9058 191.115 60.9058H190.033V59.5554H191.115C191.656 59.5554 192.062 59.4203 192.332 59.1503C192.602 58.8802 192.738 58.6101 192.738 58.2049C192.738 57.7998 192.602 57.5297 192.332 57.3947C192.062 57.2596 191.656 56.9895 191.115 56.9895C190.709 56.9895 190.304 57.1246 190.033 57.2596C189.628 57.3947 189.357 57.5297 189.222 57.7998L188.952 58.0699L188.005 57.1246L188.14 56.9895C188.14 56.9895 188.276 56.8545 188.546 56.7195C188.817 56.5844 188.952 56.4494 189.222 56.3143C189.493 56.1793 189.763 56.0442 190.169 56.0442C190.574 55.9092 190.845 55.9092 191.25 55.9092C192.197 55.9092 193.008 56.1793 193.549 56.5844C194.09 56.9895 194.36 57.6648 194.36 58.34C194.36 58.6101 194.36 58.8802 194.225 59.1503C194.09 59.4203 194.09 59.5554 193.955 59.6904C193.819 59.8255 193.684 59.9605 193.549 60.0956C193.414 60.2306 193.278 60.2306 193.278 60.3657L192.873 59.9605Z" fill="#333333"/>
<path d="M202.744 60.0951L206.259 55.6387H207.476V64.8217H205.989V58.0695L202.608 62.2559L199.228 58.0695V64.8217H197.741V55.6387H198.958L202.744 60.0951Z" fill="#333333"/>
<path d="M212.479 63.6066C211.533 62.6613 211.127 61.5809 211.127 60.2305C211.127 58.88 211.533 57.7997 212.479 56.8544C213.426 55.909 214.507 55.5039 215.995 55.5039C217.347 55.5039 218.564 55.909 219.51 56.8544C220.457 57.7997 220.862 58.88 220.862 60.2305C220.862 61.5809 220.457 62.6613 219.51 63.6066C218.564 64.5519 217.482 64.957 215.995 64.957C214.507 64.957 213.426 64.5519 212.479 63.6066ZM213.426 57.7997C212.749 58.4749 212.479 59.2852 212.479 60.2305C212.479 61.1758 212.749 61.986 213.426 62.6613C214.102 63.3365 214.913 63.6066 215.859 63.6066C216.806 63.6066 217.617 63.3365 218.293 62.6613C218.969 61.986 219.24 61.1758 219.24 60.2305C219.24 59.2852 218.969 58.4749 218.293 57.7997C217.617 57.1244 216.806 56.8544 215.859 56.8544C214.913 56.8544 214.102 57.1244 213.426 57.7997Z" fill="#333333"/>
<path d="M228.298 64.8217V61.4456L227.352 60.5003L224.377 64.8217H222.62L226.406 59.4199L222.89 55.6387H224.783L228.298 59.555V55.6387H229.786V59.555L233.437 55.6387H235.329L231.814 59.4199L235.6 64.8217H233.707L230.732 60.5003L229.786 61.4456V64.8217H228.298Z" fill="#333333"/>
<path d="M245.606 55.6387V64.8217H244.118V60.7704H239.521V64.8217H238.034V55.6387H239.521V59.555H244.118V55.6387H245.606Z" fill="#333333"/>
<path d="M250.473 63.6066C249.527 62.6613 249.121 61.5809 249.121 60.2305C249.121 58.88 249.527 57.7997 250.473 56.8544C251.42 55.909 252.501 55.5039 253.989 55.5039C255.341 55.5039 256.558 55.909 257.504 56.8544C258.451 57.7997 258.856 58.88 258.856 60.2305C258.856 61.5809 258.451 62.6613 257.504 63.6066C256.558 64.5519 255.476 64.957 253.989 64.957C252.501 64.957 251.42 64.5519 250.473 63.6066ZM251.555 57.7997C250.879 58.4749 250.608 59.2852 250.608 60.2305C250.608 61.1758 250.879 61.986 251.555 62.6613C252.231 63.3365 253.042 63.6066 253.989 63.6066C254.935 63.6066 255.746 63.3365 256.423 62.6613C257.099 61.986 257.369 61.1758 257.369 60.2305C257.369 59.2852 257.099 58.4749 256.423 57.7997C255.746 57.1244 254.935 56.8544 253.989 56.8544C253.042 56.8544 252.231 57.1244 251.555 57.7997Z" fill="#333333"/>
<path d="M266.563 55.5039C266.969 55.5039 267.509 55.5039 267.915 55.6389C268.321 55.774 268.726 55.909 268.997 56.0441C269.267 56.1791 269.538 56.4492 269.673 56.5843C269.943 56.7193 270.078 56.8543 270.078 56.9894L270.214 57.1244L269.267 58.0698C269.267 58.0698 269.267 57.9347 269.132 57.9347C269.132 57.9347 268.997 57.7997 268.861 57.6646C268.726 57.5296 268.456 57.3945 268.321 57.2595C268.05 57.1244 267.915 56.9894 267.509 56.9894C267.239 56.8543 266.833 56.8544 266.428 56.8544C265.481 56.8544 264.67 57.1244 263.994 57.7997C263.318 58.4749 263.047 59.2852 263.047 60.2305C263.047 61.1758 263.318 61.986 263.994 62.6613C264.67 63.3365 265.481 63.6066 266.428 63.6066C266.833 63.6066 267.104 63.6066 267.509 63.4715C267.78 63.3365 268.05 63.2014 268.321 63.0664C268.591 62.9314 268.726 62.7963 268.861 62.6613C268.997 62.5262 269.132 62.3912 269.267 62.2561L269.402 62.1211L270.349 63.0664C270.349 63.0664 270.214 63.2014 270.214 63.3365C270.078 63.4715 269.943 63.6066 269.808 63.7416C269.538 64.0117 269.267 64.1468 268.997 64.2818C268.726 64.4168 268.321 64.5519 267.915 64.6869C267.509 64.822 266.969 64.822 266.563 64.822C265.211 64.822 263.994 64.4169 263.047 63.4715C262.101 62.5262 261.695 61.4459 261.695 60.0954C261.695 58.745 262.101 57.6646 263.047 56.7193C263.994 55.909 265.211 55.5039 266.563 55.5039Z" fill="#333333"/>
<path d="M272.512 55.6387H279.543V56.9891H276.839V64.8217H275.352V56.9891H272.647V55.6387H272.512Z" fill="#333333"/>
<path d="M290.225 64.8217H288.738V58.2045L283.6 64.8217H282.383V55.6387H283.87V62.2559L289.008 55.6387H290.225V64.8217Z" fill="#333333"/>
<path d="M305.368 55.6387V64.8217H303.881V56.9891H300.501V58.4746C300.501 59.8251 300.501 60.9054 300.366 61.8507C300.23 62.796 300.095 63.4713 299.825 63.8764C299.554 64.2815 299.284 64.6867 299.013 64.8217C298.743 64.9568 298.337 65.0918 297.932 65.0918C297.797 65.0918 297.661 65.0918 297.391 65.0918C297.256 65.0918 297.121 64.9568 296.985 64.9568H296.85V63.6063C297.121 63.7413 297.391 63.7413 297.526 63.7413C297.797 63.7413 297.932 63.7413 298.202 63.6063C298.337 63.4713 298.608 63.2012 298.743 62.9311C298.878 62.5259 299.013 62.1208 299.149 61.3105C299.284 60.6353 299.284 59.69 299.284 58.6097V55.9088H305.368V55.6387Z" fill="#333333"/>
<path d="M317.132 64.8217H315.644V58.2045L310.506 64.8217H309.29V55.6387H310.777V62.2559L315.915 55.6387H317.132V64.8217Z" fill="#333333"/>
<path d="M325.65 59.9598C325.65 59.9598 325.785 59.9598 325.785 60.0949C325.921 60.0949 326.056 60.2299 326.191 60.365C326.326 60.5 326.597 60.635 326.732 60.7701C326.867 60.9051 327.002 61.1752 327.138 61.4453C327.273 61.7154 327.273 61.9855 327.273 62.3906C327.273 63.2009 327.002 63.7411 326.326 64.2812C325.65 64.8214 324.839 65.0915 323.757 65.0915C323.352 65.0915 322.946 65.0915 322.54 64.9565C322.135 64.8214 321.864 64.6864 321.594 64.5513C321.323 64.4163 321.053 64.2812 320.918 64.1462C320.647 64.0112 320.512 63.8761 320.512 63.7411L320.377 63.606L321.323 62.6607C321.323 62.6607 321.323 62.6607 321.459 62.7958C321.459 62.7958 321.594 62.9308 321.729 63.0658C321.864 63.2009 322.135 63.3359 322.27 63.471C322.405 63.606 322.676 63.606 322.946 63.7411C323.216 63.8761 323.487 63.8761 323.892 63.8761C324.568 63.8761 325.109 63.7411 325.38 63.471C325.785 63.2009 325.921 62.7958 325.921 62.3906C325.921 61.9855 325.785 61.5804 325.38 61.3103C324.974 61.0402 324.433 60.9051 323.892 60.9051H322.811V59.5547H323.892C324.433 59.5547 324.839 59.4196 325.109 59.1496C325.38 58.8795 325.515 58.6094 325.515 58.2042C325.515 57.7991 325.38 57.529 325.109 57.394C324.839 57.2589 324.298 56.8538 323.757 56.8538C323.352 56.8538 322.946 56.9888 322.676 57.1239C322.27 57.2589 321.999 57.394 321.864 57.6641L321.594 57.9341L320.647 56.9888L320.783 56.8538C320.783 56.8538 320.918 56.7187 321.188 56.5837C321.459 56.4487 321.594 56.3136 321.864 56.1786C322.135 56.0435 322.405 55.9085 322.811 55.9085C323.216 55.7734 323.487 55.7734 323.892 55.7734C324.839 55.7734 325.65 56.0435 326.191 56.4487C326.732 56.8538 327.002 57.529 327.002 58.2042C327.002 58.4743 327.002 58.7444 326.867 59.0145C326.732 59.2846 326.732 59.4196 326.597 59.5547C326.461 59.6897 326.326 59.8248 326.191 59.9598C326.056 60.0949 325.921 60.0949 325.921 60.2299L325.65 59.9598Z" fill="#333333"/>
<path d="M338.631 64.8217H337.143V58.2045L332.005 64.8217H330.789V55.6387H332.276V62.2559L337.414 55.6387H338.631V64.8217Z" fill="#333333"/>
<path d="M349.988 55.6387V64.8217H348.501V60.7704H343.904V64.8217H342.417V55.6387H343.904V59.555H348.501V55.6387H349.988Z" fill="#333333"/>
<path d="M353.91 64.8217V55.6387H359.859V56.9891H355.397V64.8217H353.91Z" fill="#333333"/>
<path d="M360.805 64.8217L364.591 55.6387H366.078L369.864 64.8217H368.377L367.43 62.3909H363.374L362.427 64.8217H360.805ZM365.402 57.2592L363.915 61.0405H366.889L365.402 57.2592Z" fill="#333333"/>
</svg>
